<svg width="24" height="24" viewBox="0 0 24 24" fill="none" xmlns="http://www.w3.org/2000/svg">
<path d="M12.2391 1.1625C11.9437 1.1625 11.6437 1.18265 11.3391 1.21781C9.71719 1.40578 8.30156 2.04234 7.30312 2.955C6.3 3.86812 5.7 5.09062 5.85 6.38437C5.98125 7.5375 6.68437 8.50312 7.68281 9.16875C7.80469 8.87812 7.95937 8.61094 8.11406 8.39531C7.28906 7.85156 6.78281 7.11562 6.68906 6.28594C6.58125 5.3625 7.00312 4.43062 7.85156 3.65437C8.70469 2.87765 9.975 2.29219 11.4422 2.1225C12.9094 1.95234 14.2828 2.23172 15.2906 2.79281C16.2937 3.35437 16.9172 4.16672 17.025 5.08594C17.1281 5.99062 16.7344 6.90469 15.9281 7.66406C15.4296 7.35258 14.8564 7.18096 14.2687 7.16718H14.1656C13.9266 7.17187 13.6922 7.2 13.4484 7.25156C11.6906 7.65937 10.5984 9.38437 11.0016 11.1281C11.25 12.2062 12.0141 13.0312 12.9797 13.4016L14.8406 21.4734L17.0437 22.8375L18.4266 20.6484L17.325 19.9687L18.0187 18.8719L16.9172 18.1875L17.6062 17.0953L16.5047 16.4109L17.1984 15.3141L16.5656 12.5766C17.2734 11.8219 17.5969 10.7437 17.3484 9.66094C17.2219 9.1125 16.9641 8.62968 16.6078 8.23593C17.4937 7.34531 18.0047 6.19687 17.8641 4.99219C17.7141 3.70078 16.8516 2.64656 15.6656 1.98703C14.7047 1.45031 13.5187 1.15406 12.2391 1.1625ZM11.2922 7.51406C10.0781 7.56562 8.95312 8.30156 8.46094 9.49218C8.03437 10.5187 8.17969 11.6344 8.75156 12.5016L5.57344 20.1422L6.57187 22.5328L8.97187 21.5531L8.47031 20.3578L9.67031 19.8703L9.17344 18.675L10.3734 18.1875L9.87187 16.9922L11.0719 16.5L12.1406 13.9312C11.1797 13.3922 10.4437 12.4687 10.1766 11.3156C9.85312 9.89531 10.3219 8.475 11.2922 7.51406ZM14.0109 7.85156C14.4281 7.84687 14.8219 8.01562 15.1078 8.29218C14.85 8.45625 14.5641 8.60156 14.2641 8.73281C14.1891 8.70469 14.1094 8.69531 14.025 8.69531C13.9969 8.69531 13.9734 8.69531 13.95 8.7C13.6219 8.7375 13.3781 8.98594 13.3359 9.29531C13.3266 9.34219 13.3266 9.38906 13.3266 9.43125C13.3312 9.44531 13.3312 9.46406 13.3312 9.47812C13.3781 9.87187 13.7203 10.1437 14.1141 10.0969C14.4328 10.0594 14.6766 9.82031 14.7234 9.52031C15.0141 9.38906 15.2859 9.24375 15.5437 9.07968C15.5531 9.12656 15.5625 9.17344 15.5672 9.22031C15.6656 10.0641 15.0516 10.8375 14.2078 10.9359C13.3687 11.0344 12.5906 10.4203 12.4969 9.57656C12.3984 8.73281 13.0125 7.95937 13.8562 7.86093C13.9078 7.85625 13.9594 7.85156 14.0109 7.85156Z" fill="#104D73"/>
</svg>
