<svg width="24" height="24" viewBox="0 0 24 24" fill="none" xmlns="http://www.w3.org/2000/svg">
<path opacity="0.5" d="M5.75 10C5.75 9.80109 5.82902 9.61032 5.96967 9.46967C6.11032 9.32902 6.30109 9.25 6.5 9.25H13.5C13.6989 9.25 13.8897 9.32902 14.0303 9.46967C14.171 9.61032 14.25 9.80109 14.25 10C14.25 10.1989 14.171 10.3897 14.0303 10.5303C13.8897 10.671 13.6989 10.75 13.5 10.75H6.5C6.30109 10.75 6.11032 10.671 5.96967 10.5303C5.82902 10.3897 5.75 10.1989 5.75 10ZM12.164 13.819C12.049 14.044 12.014 14.317 12.004 14.75H20.996C20.986 14.317 20.951 14.044 20.836 13.819C20.6922 13.537 20.463 13.3078 20.181 13.164C19.861 13 19.441 13 18.6 13H14.4C13.56 13 13.14 13 12.819 13.164C12.537 13.3078 12.3078 13.537 12.164 13.819ZM21 16.25H12V17.6C12 18.44 12 18.86 12.164 19.181C12.3076 19.4633 12.5369 19.693 12.819 19.837C13.139 20 13.559 20 14.4 20H18.6C19.44 20 19.86 20 20.181 19.837C20.4635 19.6931 20.6931 19.4635 20.837 19.181C21 18.861 21 18.441 21 17.6V16.25ZM6.5 12.25C6.30109 12.25 6.11032 12.329 5.96967 12.4697C5.82902 12.6103 5.75 12.8011 5.75 13C5.75 13.1989 5.82902 13.3897 5.96967 13.5303C6.11032 13.671 6.30109 13.75 6.5 13.75H10C10.1989 13.75 10.3897 13.671 10.5303 13.5303C10.671 13.3897 10.75 13.1989 10.75 13C10.75 12.8011 10.671 12.6103 10.5303 12.4697C10.3897 12.329 10.1989 12.25 10 12.25H6.5Z" fill="#104D73"/>
<path d="M12.83 3.25H7.17C6.635 3.25 6.19 3.25 5.825 3.28C5.445 3.31 5.089 3.378 4.752 3.55C4.23445 3.81367 3.81367 4.23445 3.55 4.752C3.378 5.089 3.31 5.445 3.28 5.825C3.25 6.19 3.25 6.635 3.25 7.17V16.83C3.25 17.365 3.25 17.81 3.28 18.175C3.31 18.555 3.378 18.911 3.55 19.248C3.81367 19.7656 4.23445 20.1863 4.752 20.45C4.93 20.541 5.151 20.577 5.282 20.596C5.449 20.621 5.65 20.64 5.866 20.656C6.3 20.688 6.841 20.709 7.393 20.723C8.498 20.75 9.688 20.75 10.248 20.75H10.25C10.4489 20.75 10.6397 20.671 10.7803 20.5303C10.921 20.3897 11 20.1989 11 20C11 19.8011 10.921 19.6103 10.7803 19.4697C10.6397 19.329 10.4489 19.25 10.25 19.25C9.69 19.25 8.515 19.25 7.43 19.223C6.94492 19.213 6.46013 19.192 5.976 19.16C5.77533 19.1447 5.61667 19.1287 5.5 19.112L5.394 19.094C5.17587 18.973 4.99895 18.7894 4.886 18.567C4.84 18.477 4.798 18.34 4.775 18.052C4.751 17.757 4.75 17.372 4.75 16.8V7.2C4.75 6.628 4.75 6.243 4.775 5.947C4.798 5.66 4.84 5.523 4.886 5.433C5.00591 5.19741 5.19741 5.00591 5.433 4.886C5.523 4.84 5.66 4.798 5.947 4.775C6.243 4.751 6.627 4.75 7.2 4.75H12.8C13.372 4.75 13.757 4.75 14.052 4.775C14.34 4.798 14.477 4.84 14.568 4.886C14.803 5.006 14.994 5.197 15.114 5.433C15.16 5.523 15.202 5.66 15.225 5.947C15.249 6.243 15.25 6.627 15.25 7.2V10.25C15.25 10.4489 15.329 10.6397 15.4697 10.7803C15.6103 10.921 15.8011 11 16 11C16.1989 11 16.3897 10.921 16.5303 10.7803C16.671 10.6397 16.75 10.4489 16.75 10.25V7.17C16.75 6.635 16.75 6.19 16.72 5.825C16.69 5.445 16.622 5.089 16.45 4.752C16.1869 4.23475 15.7668 3.81401 15.25 3.55C14.912 3.378 14.556 3.31 14.176 3.28C13.811 3.25 13.366 3.25 12.831 3.25" fill="#104D73"/>
<path d="M18.629 12.25H14.37C13.975 12.25 13.634 12.25 13.353 12.273C13.0495 12.2885 12.7521 12.3639 12.478 12.495C12.0543 12.7108 11.7098 13.0553 11.494 13.479C11.3629 13.7531 11.2875 14.0505 11.272 14.354C11.249 14.634 11.249 14.976 11.249 15.371V17.629C11.249 18.024 11.249 18.365 11.272 18.646C11.296 18.943 11.35 19.238 11.494 19.521C11.71 19.945 12.054 20.289 12.478 20.505C12.761 20.649 13.056 20.703 13.353 20.727C13.633 20.75 13.975 20.75 14.37 20.75H18.628C19.023 20.75 19.364 20.75 19.645 20.727C19.9485 20.7115 20.2459 20.6361 20.52 20.505C20.9436 20.2895 21.288 19.9454 21.504 19.522C21.648 19.238 21.702 18.942 21.726 18.646C21.749 18.366 21.749 18.024 21.749 17.629V15.37C21.749 14.975 21.749 14.634 21.726 14.353C21.7105 14.0495 21.6351 13.7521 21.504 13.478C21.2885 13.0544 20.9444 12.71 20.521 12.494C20.2466 12.3628 19.9488 12.2873 19.645 12.272C19.365 12.249 19.023 12.249 18.628 12.249M13.158 13.831C13.196 13.811 13.271 13.784 13.475 13.767C13.687 13.75 13.967 13.749 14.399 13.749H18.599C19.031 13.749 19.311 13.749 19.523 13.767C19.727 13.784 19.803 13.812 19.839 13.831C19.9801 13.9027 20.0949 14.0171 20.167 14.158C20.187 14.196 20.214 14.271 20.231 14.475C20.248 14.687 20.249 14.967 20.249 15.399V17.599C20.249 18.031 20.249 18.311 20.231 18.523C20.214 18.727 20.186 18.803 20.167 18.839C20.0951 18.9802 19.9802 19.0951 19.839 19.167C19.802 19.187 19.727 19.214 19.523 19.231C19.311 19.248 19.031 19.249 18.599 19.249H14.399C13.967 19.249 13.687 19.249 13.475 19.231C13.271 19.214 13.195 19.186 13.158 19.167C13.0171 19.0949 12.9027 18.9801 12.831 18.839C12.811 18.802 12.784 18.727 12.767 18.523C12.7501 18.2153 12.744 17.9071 12.749 17.599V15.399C12.749 14.967 12.749 14.687 12.767 14.475C12.784 14.271 12.812 14.195 12.831 14.158C12.9028 14.0173 13.0173 13.9028 13.158 13.831ZM5.75 7C5.75 6.80109 5.82902 6.61032 5.96967 6.46967C6.11032 6.32902 6.30109 6.25 6.5 6.25H10.5C10.6989 6.25 10.8897 6.32902 11.0303 6.46967C11.171 6.61032 11.25 6.80109 11.25 7C11.25 7.19891 11.171 7.38968 11.0303 7.53033C10.8897 7.67098 10.6989 7.75 10.5 7.75H6.5C6.30109 7.75 6.11032 7.67098 5.96967 7.53033C5.82902 7.38968 5.75 7.19891 5.75 7ZM6.5 16.25C6.30109 16.25 6.11032 16.329 5.96967 16.4697C5.82902 16.6103 5.75 16.8011 5.75 17C5.75 17.1989 5.82902 17.3897 5.96967 17.5303C6.11032 17.671 6.30109 17.75 6.5 17.75H8.5C8.69891 17.75 8.88968 17.671 9.03033 17.5303C9.17098 17.3897 9.25 17.1989 9.25 17C9.25 16.8011 9.17098 16.6103 9.03033 16.4697C8.88968 16.329 8.69891 16.25 8.5 16.25H6.5Z" fill="#104D73"/>
</svg>
