<svg width="24" height="24" viewBox="0 0 24 24" fill="none" xmlns="http://www.w3.org/2000/svg">
<path d="M5 4H19C19.2833 4 19.521 4.096 19.713 4.288C19.905 4.48 20.0007 4.71733 20 5C19.9993 5.28267 19.9033 5.52033 19.712 5.713C19.5207 5.90567 19.2833 6.00133 19 6H5C4.71667 6 4.47933 5.904 4.288 5.712C4.09667 5.52 4.00067 5.28267 4 5C3.99933 4.71733 4.09533 4.48 4.288 4.288C4.48067 4.096 4.718 4 5 4ZM5 20C4.71667 20 4.47933 19.904 4.288 19.712C4.09667 19.52 4.00067 19.2827 4 19V14H3.825C3.50833 14 3.25 13.879 3.05 13.637C2.85 13.395 2.78333 13.116 2.85 12.8L3.85 7.8C3.9 7.56667 4.01667 7.375 4.2 7.225C4.38333 7.075 4.59167 7 4.825 7H19.175C19.4083 7 19.6167 7.075 19.8 7.225C19.9833 7.375 20.1 7.56667 20.15 7.8L21.15 12.8C21.2167 13.1167 21.15 13.3957 20.95 13.637C20.75 13.8783 20.4917 13.9993 20.175 14H20V19C20 19.2833 19.904 19.521 19.712 19.713C19.52 19.905 19.2827 20.0007 19 20C18.7173 19.9993 18.48 19.9033 18.288 19.712C18.096 19.5207 18 19.2833 18 19V14H14V19C14 19.2833 13.904 19.521 13.712 19.713C13.52 19.905 13.2827 20.0007 13 20H5ZM6 18H12V14H6V18Z" fill="#104D73"/>
</svg>
