<svg width="24" height="24" viewBox="0 0 24 24" fill="none" xmlns="http://www.w3.org/2000/svg">
<path d="M4 6.125C4 5.03098 4.4346 3.98177 5.20818 3.20818C5.98177 2.4346 7.03098 2 8.125 2C9.21902 2 10.2682 2.4346 11.0418 3.20818C11.8154 3.98177 12.25 5.03098 12.25 6.125C12.25 7.21902 11.8154 8.26823 11.0418 9.04182C10.2682 9.8154 9.21902 10.25 8.125 10.25C7.03098 10.25 5.98177 9.8154 5.20818 9.04182C4.4346 8.26823 4 7.21902 4 6.125ZM13.75 8.375C13.75 7.93179 13.8373 7.49292 14.0069 7.08344C14.1765 6.67397 14.4251 6.30191 14.7385 5.98851C15.0519 5.67512 15.424 5.42652 15.8334 5.25691C16.2429 5.0873 16.6818 5 17.125 5C17.5682 5 18.0071 5.0873 18.4166 5.25691C18.826 5.42652 19.1981 5.67512 19.5115 5.98851C19.8249 6.30191 20.0735 6.67397 20.2431 7.08344C20.4127 7.49292 20.5 7.93179 20.5 8.375C20.5 9.27011 20.1444 10.1285 19.5115 10.7615C18.8786 11.3944 18.0201 11.75 17.125 11.75C16.2299 11.75 15.3715 11.3944 14.7385 10.7615C14.1056 10.1285 13.75 9.27011 13.75 8.375ZM1 18.875C1 16.9853 1.75067 15.1731 3.08686 13.8369C4.42306 12.5007 6.23533 11.75 8.125 11.75C10.0147 11.75 11.8269 12.5007 13.1631 13.8369C14.4993 15.1731 15.25 16.9853 15.25 18.875V18.878L15.249 18.997C15.2469 19.1242 15.2125 19.2487 15.1489 19.3589C15.0854 19.4691 14.995 19.5614 14.886 19.627C12.8451 20.8558 10.5072 21.5035 8.125 21.5C5.653 21.5 3.339 20.816 1.365 19.627C1.25585 19.5615 1.16517 19.4693 1.10149 19.3591C1.03781 19.2489 1.00323 19.1243 1.001 18.997L1 18.875ZM16.75 18.878L16.749 19.022C16.7434 19.3553 16.6638 19.6832 16.516 19.982C16.7173 19.994 16.9203 20 17.125 20C18.721 20 20.232 19.63 21.576 18.971C21.6973 18.9117 21.8004 18.8208 21.8743 18.7078C21.9482 18.5948 21.9903 18.4639 21.996 18.329L22 18.125C22.0001 17.3028 21.7923 16.494 21.3959 15.7737C20.9995 15.0534 20.4274 14.445 19.7327 14.0052C19.038 13.5654 18.2434 13.3085 17.4228 13.2583C16.6021 13.208 15.7821 13.3662 15.039 13.718C16.1513 15.2071 16.7512 17.0164 16.749 18.875L16.75 18.878Z" fill="#104D73"/>
</svg>
